PathFileType	4	(x/y/z)	S10_M20_T35
DataRate	CameraRate	NumFrames	NumMarkers	Units	OrigDataRate	OrigDataStartFrame	OrigNumFrames
240	240	8	51	mm	240	423	563
Frame#	Time	Sternum			R.Acromium			L.Acromium			Top.Head			R.ASIS			L.ASIS			R.PSIS			L.PSIS			R.Great.Tro			L.Great.Tro			R.Iliac.Crest			L.Iliac.Crest			V.Sacral			R.Thigh.Upper.Post			R.Thigh.Lower.Ant			R.Thigh.Lower.Post			R.Thigh.Upper.Ant			R.Knee.Lat			R.Knee.Med			R.Shank.Upper.Post			R.Shank.Lower.Ant			R.Shank.Lower.Post			R.Shank.Upper.Ant			R.Ankle.Lat			R.Ankle.Med			R.Heel.Upper			R.Heel.Med			R.Heel.Lat			R.Toe.Lat			R.Toe.Med			R.Toe.Tip			L.Thigh.Upper.Post			L.Thigh.Lower.Ant			L.Thigh.Lower.Post			L.Thigh.Upper.Ant			L.Knee.Lat			L.Knee.Med			L.Shank.Upper.Post			L.Shank.Lower.Ant			L.Shank.Lower.Post			L.Shank.Upper.Ant			L.Ankle.Lat			L.Ankle.Med			L.Heel.Upper			L.Heel.Med			L.Heel.Lat			L.Toe.Lat			L.Toe.Med			L.Toe.Tip			Cervical.Spine			Back			
		X1	Y1	Z1	X2	Y2	Z2	X3	Y3	Z3	X4	Y4	Z4	X5	Y5	Z5	X6	Y6	Z6	X7	Y7	Z7	X8	Y8	Z8	X9	Y9	Z9	X10	Y10	Z10	X11	Y11	Z11	X12	Y12	Z12	X13	Y13	Z13	X14	Y14	Z14	X15	Y15	Z15	X16	Y16	Z16	X17	Y17	Z17	X18	Y18	Z18	X19	Y19	Z19	X20	Y20	Z20	X21	Y21	Z21	X22	Y22	Z22	X23	Y23	Z23	X24	Y24	Z24	X25	Y25	Z25	X26	Y26	Z26	X27	Y27	Z27	X28	Y28	Z28	X29	Y29	Z29	X30	Y30	Z30	X31	Y31	Z31	X32	Y32	Z32	X33	Y33	Z33	X34	Y34	Z34	X35	Y35	Z35	X36	Y36	Z36	X37	Y37	Z37	X38	Y38	Z38	X39	Y39	Z39	X40	Y40	Z40	X41	Y41	Z41	X42	Y42	Z42	X43	Y43	Z43	X44	Y44	Z44	X45	Y45	Z45	X46	Y46	Z46	X47	Y47	Z47	X48	Y48	Z48	X49	Y49	Z49	X50	Y50	Z50	X51	Y51	Z51	

423	1.7583	1454	1284.9	301.11	1332.7	1448.3	441.01	1333.7	1448.3	132.87	1272.4	1748.6	301.56	1397.1	1007.4	407.72	1405.1	1034.7	177.61	1200.5	1034.5	317.34	1207.9	1046.1	235.82	1327.8	921.31	474.72	1347.6	976.12	114.57	1302.6	1087.7	452.91	1339	1110.3	150.32	1179.8	1006.9	275.65	1399.1	726.19	484.8	1475.9	666.53	453.57	1420.3	638.81	482.44	1456.1	755.84	451.53	1441.9	514.08	451.82	1452.6	511.03	319.79	1252	400.03	446.88	1252.7	308.33	436.46	1199.5	347.34	442.19	1311.2	358.39	441.56	1132.6	257.29	423.96	1149	251.74	345.23	1067	273.51	373.95	1050.1	252.06	345.51	1047.7	256.33	407.73	1136	109.51	449.44	1160.5	95.476	343.73	1208.8	59.33	384.48	1329.8	691.52	126.75	1403.7	617	159.76	1333.8	599.36	151.87	1406.7	705.16	134.05	1373.8	515.78	171.88	1374.7	520.02	300.31	1300.5	303.17	176.54	1362.2	213.58	198.17	1299.7	226.66	189.01	1363.2	289.64	185.07	1321.6	105.76	206.44	1335.2	119.75	292.91	1253.3	77.607	254.39	1263.7	46.336	287.5	1258.3	47.549	221.29	1435.5	40.935	185.77	1463.4	48.193	293.52	1518.3	59.581	246.31	1250.8	1502.8	294.32	1170.7	1292.7	289.42
424	1.7625	1458.2	1285.4	300.81	1336.6	1448.7	440.84	1338.7	1449.1	132.73	1277.4	1749.2	301.52	1401.8	1008.2	407.14	1409.1	1034.9	176.99	1204.9	1034.9	317.46	1212.2	1046.4	235.88	1333.3	922.38	474.79	1351.2	976.15	114.19	1307.3	1088.5	452.62	1342.9	1110.5	149.88	1184.1	1007.2	275.87	1406.5	728	484.76	1483.6	669.07	452.89	1428.6	640.88	482.58	1462.8	758.13	450.67	1450.8	516.04	451.64	1461	513.29	319.75	1262.3	399.1	446.48	1264.5	307.42	436.41	1210.7	345.54	441.91	1322.1	358.46	441.5	1145.5	254.07	423.84	1161.8	248.82	345.25	1078.7	268.34	374.07	1062.5	246.33	345.65	1060.2	250.59	407.88	1153.2	106.72	449.61	1177.7	93.256	343.77	1227.5	58.743	384.51	1331.7	691.88	126.71	1404.9	616.71	159.48	1335.1	599.68	151.82	1408.7	704.94	133.73	1374.6	515.75	171.53	1376.1	519.91	299.98	1300.7	303.29	176.5	1362.4	213.55	198.02	1299.8	226.77	189.01	1363.4	289.6	184.86	1321.6	105.75	206.45	1335.1	119.78	292.97	1253.3	77.662	254.41	1263.7	46.352	287.51	1258.3	47.594	221.31	1435.5	40.93	185.77	1463.3	48.114	293.52	1518.3	59.501	246.32	1255.2	1503.3	293.89	1175.2	1293.3	288.8
425	1.7667	1462.5	1285.9	300.48	1340.6	1449	440.68	1343.6	1449.9	132.6	1282.3	1749.7	301.49	1406.5	1008.9	406.59	1413.1	1035.2	176.38	1209.3	1035.3	317.58	1216.4	1046.6	235.95	1338.8	923.41	474.85	1354.8	976.13	113.82	1311.9	1089.2	452.33	1346.9	1110.7	149.44	1188.5	1007.4	276.09	1413.9	729.79	484.71	1491.2	671.57	452.2	1436.9	642.93	482.7	1469.4	760.37	449.81	1459.6	517.96	451.43	1469.3	515.53	319.69	1272.6	398.04	446.09	1276.4	306.41	436.35	1221.9	343.59	441.65	1333.1	358.46	441.45	1158.4	250.72	423.73	1174.7	245.76	345.26	1090.7	262.98	374.15	1075.2	240.43	345.75	1072.8	244.68	407.99	1170.5	103.93	449.82	1195.1	91.01	343.86	1246.2	58.186	384.59	1333.6	692.22	126.69	1406.2	616.41	159.21	1336.5	599.99	151.8	1410.8	704.7	133.42	1375.3	515.7	171.19	1377.4	519.78	299.66	1301	303.4	176.47	1362.5	213.51	197.87	1299.9	226.89	189.03	1363.7	289.56	184.66	1321.7	105.74	206.46	1335.1	119.81	293.04	1253.3	77.715	254.44	1263.7	46.367	287.53	1258.3	47.638	221.35	1435.5	40.927	185.78	1463.3	48.02	293.53	1518.3	59.415	246.33	1259.7	1503.8	293.47	1179.7	1293.7	288.21
426	1.7708	1466.8	1286.3	300.13	1344.6	1449.3	440.52	1348.6	1450.6	132.47	1287.2	1750.1	301.47	1411.1	1009.6	406.05	1417	1035.4	175.79	1213.7	1035.6	317.69	1220.6	1046.8	236.03	1344.2	924.4	474.92	1358.5	976.07	113.47	1316.6	1089.8	452.05	1350.8	1110.9	149.01	1192.8	1007.7	276.3	1421.2	731.56	484.65	1498.7	674.01	451.49	1445.1	644.95	482.78	1476	762.55	448.94	1468.3	519.87	451.2	1477.4	517.73	319.62	1282.9	396.85	445.73	1288.3	305.31	436.28	1233.1	341.5	441.4	1344	358.38	441.4	1171.4	247.24	423.62	1187.7	242.58	345.26	1102.8	257.45	374.21	1088	234.36	345.82	1085.7	238.62	408.08	1188	101.14	450.05	1212.5	88.749	343.99	1264.9	57.663	384.75	1335.5	692.55	126.68	1407.4	616.12	158.95	1337.9	600.29	151.8	1412.8	704.45	133.13	1376.1	515.64	170.87	1378.8	519.64	299.35	1301.2	303.52	176.47	1362.6	213.47	197.72	1300	227.01	189.07	1364	289.52	184.47	1321.7	105.73	206.48	1335	119.83	293.13	1253.3	77.765	254.49	1263.7	46.382	287.55	1258.3	47.682	221.39	1435.5	40.926	185.8	1463.3	47.908	293.54	1518.4	59.324	246.35	1264.2	1504.2	293.08	1184.1	1294.2	287.64
427	1.775	1471.1	1286.7	299.77	1348.6	1449.5	440.36	1353.5	1451.3	132.34	1292.1	1750.6	301.46	1415.8	1010.2	405.54	1421	1035.5	175.21	1218.2	1035.8	317.81	1224.8	1047	236.1	1349.6	925.35	474.99	1362.1	975.97	113.15	1321.3	1090.4	451.78	1354.7	1111	148.59	1197.1	1007.9	276.52	1428.4	733.29	484.58	1506.2	676.39	450.77	1453.2	646.94	482.84	1482.5	764.68	448.08	1476.9	521.74	450.93	1485.3	519.88	319.53	1293.2	395.52	445.38	1300.3	304.11	436.19	1244.4	339.28	441.17	1355	358.23	441.34	1184.5	243.65	423.51	1200.9	239.27	345.24	1115.2	251.76	374.22	1101.1	228.16	345.84	1098.7	232.44	408.12	1205.4	98.366	450.32	1230	86.486	344.18	1283.6	57.177	384.98	1337.4	692.87	126.69	1408.8	615.83	158.69	1339.3	600.57	151.82	1414.9	704.19	132.87	1376.9	515.57	170.55	1380.1	519.49	299.06	1301.4	303.63	176.47	1362.8	213.42	197.58	1300.1	227.12	189.12	1364.2	289.47	184.28	1321.8	105.73	206.51	1335	119.84	293.22	1253.3	77.814	254.54	1263.7	46.397	287.58	1258.4	47.726	221.44	1435.5	40.927	185.82	1463.2	47.778	293.55	1518.4	59.226	246.37	1268.6	1504.5	292.71	1188.6	1294.6	287.09
428	1.7792	1475.4	1287	299.4	1352.6	1449.7	440.21	1358.4	1452	132.21	1297	1750.9	301.47	1420.4	1010.7	405.05	1425	1035.6	174.65	1222.6	1036.1	317.93	1229	1047.1	236.18	1355	926.26	475.06	1365.7	975.83	112.84	1325.9	1091	451.51	1358.7	1111	148.18	1201.5	1008	276.74	1435.6	734.98	484.49	1513.5	678.71	450.03	1461.2	648.89	482.86	1488.9	766.74	447.22	1485.4	523.57	450.63	1493	521.98	319.41	1303.5	394.07	445.07	1312.4	302.83	436.08	1255.8	336.93	440.96	1365.9	358.01	441.29	1197.7	239.95	423.42	1214.2	235.86	345.22	1127.7	245.94	374.2	1114.4	221.83	345.83	1112	226.14	408.13	1222.9	95.619	450.62	1247.6	84.236	344.42	1302.4	56.734	385.3	1339.4	693.17	126.7	1410.1	615.55	158.44	1340.7	600.84	151.84	1416.9	703.92	132.64	1377.7	515.5	170.24	1381.5	519.33	298.78	1301.7	303.74	176.49	1362.9	213.37	197.44	1300.3	227.23	189.18	1364.5	289.42	184.09	1321.8	105.72	206.54	1334.9	119.85	293.33	1253.3	77.86	254.6	1263.7	46.413	287.61	1258.4	47.772	221.49	1435.6	40.929	185.84	1463.1	47.629	293.56	1518.4	59.123	246.38	1273.1	1504.9	292.35	1193	1294.9	286.56
429	1.7833	1479.6	1287.3	299.02	1356.7	1449.8	440.05	1363.3	1452.6	132.09	1301.9	1751.3	301.48	1425.1	1011.2	404.58	1428.9	1035.6	174.11	1227	1036.3	318.05	1233.2	1047.2	236.26	1360.3	927.13	475.12	1369.3	975.66	112.56	1330.6	1091.5	451.26	1362.6	1111	147.77	1205.8	1008.2	276.97	1442.6	736.62	484.39	1520.8	680.97	449.29	1469.1	650.78	482.85	1495.3	768.74	446.36	1493.8	525.36	450.29	1500.6	524.02	319.27	1313.8	392.5	444.77	1324.5	301.46	435.96	1267.2	334.46	440.77	1376.9	357.71	441.23	1211	236.16	423.32	1227.6	232.36	345.19	1140.5	239.99	374.14	1128	215.39	345.78	1125.4	219.75	408.11	1240.5	92.906	450.96	1265.4	82.01	344.72	1321.1	56.338	385.69	1341.3	693.46	126.73	1411.5	615.26	158.2	1342.1	601.1	151.88	1419	703.64	132.42	1378.5	515.42	169.94	1382.8	519.15	298.5	1301.9	303.84	176.5	1363	213.31	197.32	1300.4	227.34	189.24	1364.8	289.36	183.92	1321.9	105.71	206.58	1334.8	119.86	293.45	1253.4	77.904	254.67	1263.7	46.429	287.65	1258.5	47.819	221.55	1435.6	40.931	185.86	1463.1	47.459	293.57	1518.5	59.014	246.4	1277.6	1505.2	292.02	1197.5	1295.3	286.05
430	1.7875	1484	1287.5	298.63	1360.7	1449.9	439.91	1368.1	1453.2	131.97	1306.8	1751.6	301.51	1429.8	1011.7	404.13	1432.8	1035.6	173.58	1231.4	1036.4	318.18	1237.4	1047.2	236.36	1365.6	927.95	475.18	1372.9	975.45	112.29	1335.2	1092	451.02	1366.5	1111	147.38	1210.1	1008.3	277.2	1449.6	738.22	484.27	1528	683.15	448.54	1476.9	652.63	482.8	1501.6	770.66	445.52	1502	527.1	449.93	1508	525.99	319.1	1324.1	390.81	444.5	1336.6	300.01	435.82	1278.7	331.87	440.6	1387.9	357.34	441.16	1224.5	232.28	423.23	1241.1	228.77	345.15	1153.5	233.95	374.05	1141.8	208.87	345.69	1139.1	213.29	408.05	1258.1	90.236	451.33	1283.2	79.821	345.08	1339.9	55.992	386.16	1343.2	693.73	126.78	1412.9	614.98	157.96	1343.6	601.35	151.94	1421	703.35	132.23	1379.3	515.34	169.64	1384.1	518.96	298.24	1302.2	303.95	176.52	1363.2	213.25	197.2	1300.6	227.45	189.31	1365.2	289.3	183.76	1322	105.7	206.62	1334.7	119.86	293.57	1253.5	77.947	254.75	1263.7	46.446	287.7	1258.5	47.868	221.62	1435.6	40.934	185.89	1462.9	47.271	293.59	1518.5	58.9	246.42	1282.2	1505.5	291.7	1202	1295.6	285.57
